<svg id="Слой_1" data-name="Слой 1" xmlns="http://www.w3.org/2000/svg" viewBox="0 0 1836 512"><defs><style>.cls-1{fill:#e83150;stroke:#e83150;stroke-miterlimit:10;}.cls-2{fill:#fff;}.cls-3{fill:#732020;}</style></defs><path d="M653.22,172.86h25.65V339.14H653.22V322q-14.51,20.19-41.57,20.19-24.48,0-41.81-18.17T552.5,279.75q0-26.35,17.34-44.42t41.81-18.05q27.08,0,41.57,19.95ZM588.84,307q10.7,10.82,26.84,10.81T642.53,307q10.68-10.8,10.69-27.2t-10.69-27.2q-10.69-10.8-26.85-10.8t-26.84,10.8q-10.7,10.81-10.69,27.2T588.84,307Z"/><path d="M764.86,342.23q-26.13,0-44.42-18.05t-18.29-44.43q0-26.35,18.29-44.42t44.42-18.05q26.37,0,44.54,18.05t18.17,44.42q0,26.37-18.17,44.43T764.86,342.23ZM738.49,306.6a37.87,37.87,0,0,0,52.74,0q10.69-10.69,10.69-26.85t-10.69-26.84q-10.69-10.69-26.37-10.69t-26.37,10.69q-10.68,10.7-10.69,26.84T738.49,306.6Z"/><path d="M913.33,217.28q20.43,0,33,13.06t12.59,35.87v72.93H933.28V268.83q0-13.31-7.12-20.43t-19.48-7.13q-13.54,0-21.86,8.43t-8.31,25.78v63.66H850.85V220.37h25.66v15.2Q888.15,217.29,913.33,217.28Z"/><path d="M1010.25,172.86l-16.63,61.76H972.24l9.5-61.76Z"/><path d="M1103.84,245.07h-29.45v57q0,7.38,3.32,10.57t9.86,3.57a160.66,160.66,0,0,0,16.27-.12v23q-29.46,3.57-42.28-5.11t-12.83-31.95v-57h-21.85v-24.7h21.85V194.71l25.66-7.6v33.26h29.45Z"/><path d="M1324.52,220.37h27.08l-37.29,118.77h-25.18l-24.71-80.05-24.94,80.05H1214.3L1177,220.37h27.09l23,81.95,24.94-81.95h24.47l24.7,81.95Z"/><path d="M1396.26,240.32q9.73-22.09,36.58-22.09V246q-14.73-.95-25.65,7t-10.93,26.25v59.86H1370.6V220.37h25.66Z"/><path d="M1476.19,197.68a16.39,16.39,0,0,1-27.91-11.52,15.94,15.94,0,0,1,4.75-11.52,16.35,16.35,0,0,1,23.28,0,15.94,15.94,0,0,1,4.75,11.52A15.71,15.71,0,0,1,1476.19,197.68Zm-24.35,141.46V220.37h25.66V339.14Z"/><path d="M1573.47,245.07H1544v57q0,7.38,3.33,10.57t9.85,3.57a160.87,160.87,0,0,0,16.28-.12v23q-29.46,3.57-42.29-5.11t-12.83-31.95v-57H1496.5v-24.7h21.85V194.71l25.66-7.6v33.26h29.46Z"/><path d="M1612.18,290.68q2.86,13.54,13.07,20.79t24.94,7.24q20.43,0,30.65-14.73L1702,316.34q-17.58,25.89-52,25.89-29,0-46.8-17.7t-17.82-44.78q0-26.6,17.58-44.54t45.13-17.93q26.13,0,42.88,18.29T1707.68,280a79.77,79.77,0,0,1-1,10.69Zm-.23-20.9h69.84q-2.62-14.49-12-21.86a34.61,34.61,0,0,0-22-7.36q-14.25,0-23.76,7.84T1612,269.78Z"/><path d="M1758.27,336.77a17.81,17.81,0,0,1-30.4-12.59,17.37,17.37,0,0,1,5.1-12.59,17.85,17.85,0,1,1,25.3,25.18Zm-22.8-49.89-5.23-66.51V172.86h30.88v47.51l-5.46,66.51Z"/><g id="Logo"><circle class="cls-1" cx="266.5" cy="256" r="194"/><path class="cls-2" d="M230.61,277.4S225.85,250.29,203,236c-9.67-6.7-21-9.56-31.93-10.74a44.56,44.56,0,1,0,64.58,61.42A14.8,14.8,0,0,1,230.61,277.4Z"/><circle cx="203.02" cy="256" r="21.4"/><path class="cls-3" d="M143.11,213.21c10.89-1.26,46.16-3.93,75.6,18.54,7.55,5.76,32.14,24.52,31.44,49.38a38.81,38.81,0,0,1-.59,5.65c-.89,4.88-16.58,4.88-18.95-9.38,0,0-4.76-27.11-27.59-41.37-18.54-12.84-43-11.6-59.91-11.41Z"/><path class="cls-2" d="M302.39,277.4S307.15,250.29,330,236c9.67-6.7,20.95-9.56,31.93-10.74a44.56,44.56,0,1,1-64.58,61.42A14.8,14.8,0,0,0,302.39,277.4Z"/><circle cx="329.98" cy="256" r="21.4"/><path class="cls-3" d="M389.89,213.21c-10.89-1.26-46.16-3.93-75.6,18.54-7.55,5.76-32.14,24.52-31.44,49.38a38.81,38.81,0,0,0,.59,5.65c.89,4.88,16.58,4.88,18.95-9.38,0,0,4.76-27.11,27.59-41.37,18.54-12.84,43-11.6,59.91-11.41Z"/><rect x="103.88" y="309.49" width="325.24" height="108.41" rx="10.82"/><path class="cls-2" d="M134.73,391.26a1.32,1.32,0,0,1-.23-1.39l4.17-11.31H129.4A1.86,1.86,0,0,1,128,378a1.62,1.62,0,0,1-.32-1.48l.65-3a2.32,2.32,0,0,1,.93-1.48,2.64,2.64,0,0,1,1.66-.56h10.3L147.11,355H136.82a1.85,1.85,0,0,1-1.44-.55,1.59,1.59,0,0,1-.32-1.48l.65-3a2.37,2.37,0,0,1,.92-1.49,2.72,2.72,0,0,1,1.67-.55h11.41l4.08-11.31a2.89,2.89,0,0,1,1-1.39,2.33,2.33,0,0,1,1.53-.56h3.15a1.57,1.57,0,0,1,1.3.56,1.37,1.37,0,0,1,.19,1.39L156.85,348h13.91l4.07-11.31a3,3,0,0,1,1-1.39,2.33,2.33,0,0,1,1.53-.56h3.15a1.57,1.57,0,0,1,1.3.56,1.35,1.35,0,0,1,.18,1.39L177.89,348h9.18a1.58,1.58,0,0,1,1.35.55,1.82,1.82,0,0,1,.23,1.49l-.65,3a2.07,2.07,0,0,1-.79,1.48,2.5,2.5,0,0,1-1.62.55h-10.2l-5.93,16.51h10.2a1.55,1.55,0,0,1,1.34.56,1.76,1.76,0,0,1,.23,1.48l-.65,3a2.09,2.09,0,0,1-.78,1.48,2.56,2.56,0,0,1-1.63.56H166.86l-4.08,11.31a2.69,2.69,0,0,1-2.5,1.94h-3.16a1.74,1.74,0,0,1-1.34-.55,1.3,1.3,0,0,1-.23-1.39l4.17-11.31H145.81l-4.08,11.31a2.68,2.68,0,0,1-2.5,1.94h-3.15A1.74,1.74,0,0,1,134.73,391.26Zm13.68-19.75h13.81L168.16,355H154.34Z"/><path class="cls-2" d="M205.62,404.1a1.79,1.79,0,0,1-.28-1.53l1.39-6.49q-8.44-.93-12.89-5.05a13.1,13.1,0,0,1-4.45-10,15.4,15.4,0,0,1,.09-1.95,2,2,0,0,1,.79-1.3,2.42,2.42,0,0,1,1.53-.55h4.45a2,2,0,0,1,2,1.85,8.24,8.24,0,0,0,3.29,6.72q3.39,2.84,10.16,2.83,7.88,0,12.61-2.78a11.7,11.7,0,0,0,5.84-7.7,7.29,7.29,0,0,0,.18-1.85,5.48,5.48,0,0,0-1.76-4.17,17,17,0,0,0-5-3.06q-3.24-1.39-9.64-3.43-8.34-2.6-12.24-6.08a11.56,11.56,0,0,1-3.89-9,19.64,19.64,0,0,1,7.69-15.71q5.76-4.41,14.84-5l1.58-6.4a2.59,2.59,0,0,1,.88-1.53,2.52,2.52,0,0,1,1.71-.61h3.34a1.51,1.51,0,0,1,1.34.61,1.93,1.93,0,0,1,.24,1.53L228,330a21.81,21.81,0,0,1,8.81,2.87,15.49,15.49,0,0,1,5.42,5.34,12.26,12.26,0,0,1,1.81,6.25,15.66,15.66,0,0,1-.18,1.86,2.65,2.65,0,0,1-.79,1.39,2.17,2.17,0,0,1-1.53.56h-4.64a1.9,1.9,0,0,1-1.94-1.86,7.36,7.36,0,0,0-3.06-6.54,13.65,13.65,0,0,0-8.72-2.64,21.65,21.65,0,0,0-10.8,2.5,10.65,10.65,0,0,0-5.43,7.24,9,9,0,0,0-.27,2.13,6.47,6.47,0,0,0,3.33,5.66q3.34,2.13,11.69,4.73,9.27,2.78,13.49,6.21a11,11,0,0,1,4.22,9,23.43,23.43,0,0,1-.47,4.08,19.89,19.89,0,0,1-8.11,12.61q-6.34,4.45-16.55,4.91l-1.3,6.31a2.52,2.52,0,0,1-.93,1.53,2.57,2.57,0,0,1-1.66.6H207A1.65,1.65,0,0,1,205.62,404.1Z"/><path class="cls-2" d="M254.06,392.42a13,13,0,0,1-4.77-10.53,18.28,18.28,0,0,1,.37-3.8,19,19,0,0,1,5.61-9.92,51.25,51.25,0,0,1,11.36-7.79,29.47,29.47,0,0,1-4-6.53,15.2,15.2,0,0,1-1.21-5.8,22.33,22.33,0,0,1,.38-3.25,17.94,17.94,0,0,1,3.8-7.55,20.83,20.83,0,0,1,7.23-5.56,21.48,21.48,0,0,1,9.46-2.09q6.48,0,10.29,3.29a10.82,10.82,0,0,1,3.8,8.58,13.22,13.22,0,0,1-.37,3.24,16.94,16.94,0,0,1-5.66,9.51A60.64,60.64,0,0,1,278.22,362l12.61,15.67a52.22,52.22,0,0,0,8.06-14.28,2.32,2.32,0,0,1,.84-1.35,2.53,2.53,0,0,1,1.57-.51h3.81a1.48,1.48,0,0,1,1.25.56,1.63,1.63,0,0,1,.23,1.39,36.66,36.66,0,0,1-4,9.37,59.58,59.58,0,0,1-7.47,10.1l7.51,9.37a2,2,0,0,1,.37,1.11,1.91,1.91,0,0,1-.6,1.48,2.12,2.12,0,0,1-1.53.56h-4.91a2.79,2.79,0,0,1-2.32-.93l-4.82-6.12a33.63,33.63,0,0,1-21.7,8Q258.84,396.36,254.06,392.42Zm22.58-4.87a28.37,28.37,0,0,0,7.88-4.73l-14-17.06a42.08,42.08,0,0,0-8.48,5.47,12.5,12.5,0,0,0-4.13,6.68,10.55,10.55,0,0,0-.28,2.31,7.7,7.7,0,0,0,3.16,6.54,12.72,12.72,0,0,0,7.88,2.37A22.07,22.07,0,0,0,276.64,387.55Zm8.16-37.18a9.21,9.21,0,0,0,3.52-7.33,5.82,5.82,0,0,0-2.08-4.77,8.38,8.38,0,0,0-5.52-1.72,11.5,11.5,0,0,0-5.24,1.3,11.22,11.22,0,0,0-4.17,3.62,9,9,0,0,0-1.62,5.28,10,10,0,0,0,1.06,4.22,36.23,36.23,0,0,0,3.57,5.7A50.51,50.51,0,0,0,284.8,350.37Z"/><path class="cls-2" d="M310.76,394.83a1.82,1.82,0,0,1-.28-1.53l1.12-5.66a2.65,2.65,0,0,1,2.59-2.13h5.66a1.78,1.78,0,0,1,1.43.6,1.74,1.74,0,0,1,.33,1.53l-1.21,5.66a2.55,2.55,0,0,1-.92,1.53,2.61,2.61,0,0,1-1.67.6h-5.66A1.65,1.65,0,0,1,310.76,394.83Zm4.08-15.16a1.87,1.87,0,0,1-.28-1.58l9.65-45.43a2.59,2.59,0,0,1,.88-1.53,2.39,2.39,0,0,1,1.62-.6h4.08a1.7,1.7,0,0,1,1.39.55,1.87,1.87,0,0,1,.28,1.58l-9.65,45.43a2.55,2.55,0,0,1-.92,1.53,2.59,2.59,0,0,1-1.67.6h-4A1.7,1.7,0,0,1,314.84,379.67Z"/><path class="cls-2" d="M343.26,397.35q-6.72-6.17-6.72-17.57a39.18,39.18,0,0,1,.27-4.54q.29-2.6,1.44-8.07c.77-3.64,1.41-6.24,1.9-7.79q4.26-13.15,14.19-20.81t24-7.65q28,0,28,21.79a42.86,42.86,0,0,1-.56,6.67,101.56,101.56,0,0,1-2.51,12.15q-1.85,6.68-5.88,10.2a14.1,14.1,0,0,1-9.6,3.52q-6.3,0-9.09-5.28a15.57,15.57,0,0,1-13,6.21q-5.65,0-8.76-3.29t-3.1-9.32a32.66,32.66,0,0,1,.74-6.31q1.85-8.89,7-13.95a16.69,16.69,0,0,1,12.1-5.05,9.87,9.87,0,0,1,5.38,1.25,9.15,9.15,0,0,1,3,3.2l.38-1.58a2.55,2.55,0,0,1,.92-1.53,2.59,2.59,0,0,1,1.67-.6h2.41a1.65,1.65,0,0,1,1.39.6,1.82,1.82,0,0,1,.28,1.53L385,371a14.79,14.79,0,0,0-.28,2.78,5.58,5.58,0,0,0,1.16,3.81,4.08,4.08,0,0,0,3.2,1.29,6,6,0,0,0,5.14-2.5,15.64,15.64,0,0,0,2.55-5.47,96.85,96.85,0,0,0,2.32-11,35.72,35.72,0,0,0,.37-5.29q0-8.62-5.33-12.93T377,337.32q-11.31,0-19,5.88t-11.27,16.65q-.74,2.31-1.8,7.32c-.71,3.34-1.16,5.88-1.35,7.6s-.18,2.79-.18,3.53q0,9.09,5.38,13.95t15.85,4.87a43.6,43.6,0,0,0,10.25-1,28.92,28.92,0,0,0,6.07-2c1.3-.68,2.93-1.67,4.91-3a9.05,9.05,0,0,0,1-.65,2.88,2.88,0,0,1,1.71-.55h3.53a1.57,1.57,0,0,1,1.34.55,1.82,1.82,0,0,1,.23,1.49,5.07,5.07,0,0,1-.65,1.39,44.4,44.4,0,0,1-12.56,7.42,47.29,47.29,0,0,1-17.2,2.78Q350,403.52,343.26,397.35Zm31.85-20.81a20.31,20.31,0,0,0,4-9.28,30.58,30.58,0,0,0,.64-5.28q0-7.41-6.95-7.42-8.81,0-11.59,12.7a19.81,19.81,0,0,0-.46,4.55,9.44,9.44,0,0,0,1.62,5.84q1.62,2.13,5.14,2.13A9.51,9.51,0,0,0,375.11,376.54Z"/></g></svg>