<svg id="Слой_1" data-name="Слой 1" xmlns="http://www.w3.org/2000/svg" xmlns:xlink="http://www.w3.org/1999/xlink" viewBox="0 0 512 512"><defs><style>.cls-1{fill:#e83150;}.cls-1,.cls-2{stroke:#e83150;stroke-miterlimit:10;}.cls-2{fill:url(#Безымянный_градиент_33);}.cls-3{fill:#fff;}.cls-4{fill:#732020;}</style><radialGradient id="Безымянный_градиент_33" cx="256" cy="256" fy="180.336357565129" r="194" gradientUnits="userSpaceOnUse"><stop offset="0" stop-color="#ffc0cc"/><stop offset="0.01" stop-color="#ffc0cc"/><stop offset="0.99" stop-color="#e83150"/></radialGradient></defs><rect class="cls-1" width="512" height="512"/><g id="Logo"><circle class="cls-2" cx="256" cy="256" r="194"/><path class="cls-3" d="M220.11,277.4s-4.76-27.11-27.59-41.37c-9.67-6.7-21-9.56-31.93-10.74a44.56,44.56,0,1,0,64.58,61.42A14.8,14.8,0,0,1,220.11,277.4Z"/><circle cx="192.52" cy="256" r="21.4"/><path class="cls-4" d="M132.61,213.21c10.89-1.26,46.16-3.93,75.6,18.54,7.55,5.76,32.14,24.52,31.44,49.38a38.81,38.81,0,0,1-.59,5.65c-.89,4.88-16.58,4.88-18.95-9.38,0,0-4.76-27.11-27.59-41.37-18.54-12.84-43-11.6-59.91-11.41Z"/><path class="cls-3" d="M291.89,277.4s4.76-27.11,27.59-41.37c9.67-6.7,20.95-9.56,31.93-10.74a44.56,44.56,0,1,1-64.58,61.42A14.8,14.8,0,0,0,291.89,277.4Z"/><circle cx="319.48" cy="256" r="21.4"/><path class="cls-4" d="M379.39,213.21c-10.89-1.26-46.16-3.93-75.6,18.54-7.55,5.76-32.14,24.52-31.44,49.38a38.81,38.81,0,0,0,.59,5.65c.89,4.88,16.58,4.88,18.95-9.38,0,0,4.76-27.11,27.59-41.37,18.54-12.84,43-11.6,59.91-11.41Z"/><rect x="93.38" y="309.49" width="325.24" height="108.41" rx="10.82"/><path class="cls-3" d="M124.23,391.26a1.32,1.32,0,0,1-.23-1.39l4.17-11.31H118.9a1.86,1.86,0,0,1-1.44-.56,1.62,1.62,0,0,1-.32-1.48l.65-3a2.32,2.32,0,0,1,.93-1.48,2.64,2.64,0,0,1,1.66-.56h10.3L136.61,355H126.32a1.85,1.85,0,0,1-1.44-.55,1.59,1.59,0,0,1-.32-1.48l.65-3a2.37,2.37,0,0,1,.92-1.49,2.72,2.72,0,0,1,1.67-.55h11.41l4.08-11.31a2.89,2.89,0,0,1,1-1.39,2.33,2.33,0,0,1,1.53-.56h3.15a1.57,1.57,0,0,1,1.3.56,1.37,1.37,0,0,1,.19,1.39L146.35,348h13.91l4.07-11.31a3,3,0,0,1,1-1.39,2.33,2.33,0,0,1,1.53-.56H170a1.57,1.57,0,0,1,1.3.56,1.35,1.35,0,0,1,.18,1.39L167.39,348h9.18a1.58,1.58,0,0,1,1.35.55,1.82,1.82,0,0,1,.23,1.49l-.65,3a2.07,2.07,0,0,1-.79,1.48,2.5,2.5,0,0,1-1.62.55h-10.2L159,371.51h10.2a1.55,1.55,0,0,1,1.34.56,1.76,1.76,0,0,1,.23,1.48l-.65,3a2.09,2.09,0,0,1-.78,1.48,2.56,2.56,0,0,1-1.63.56H156.36l-4.08,11.31a2.69,2.69,0,0,1-2.5,1.94h-3.16a1.74,1.74,0,0,1-1.34-.55,1.3,1.3,0,0,1-.23-1.39l4.17-11.31H135.31l-4.08,11.31a2.68,2.68,0,0,1-2.5,1.94h-3.15A1.74,1.74,0,0,1,124.23,391.26Zm13.68-19.75h13.81L157.66,355H143.84Z"/><path class="cls-3" d="M195.12,404.1a1.79,1.79,0,0,1-.28-1.53l1.39-6.49q-8.44-.93-12.89-5.05a13.1,13.1,0,0,1-4.45-10,15.4,15.4,0,0,1,.09-1.95,2,2,0,0,1,.79-1.3,2.42,2.42,0,0,1,1.53-.55h4.45a2,2,0,0,1,2,1.85,8.24,8.24,0,0,0,3.29,6.72q3.39,2.84,10.16,2.83,7.88,0,12.61-2.78a11.7,11.7,0,0,0,5.84-7.7,7.29,7.29,0,0,0,.18-1.85,5.48,5.48,0,0,0-1.76-4.17,17,17,0,0,0-5-3.06q-3.24-1.39-9.64-3.43-8.34-2.6-12.24-6.08a11.56,11.56,0,0,1-3.89-9A19.64,19.64,0,0,1,195,334.84q5.76-4.41,14.84-5l1.58-6.4a2.59,2.59,0,0,1,.88-1.53,2.52,2.52,0,0,1,1.71-.61h3.34a1.51,1.51,0,0,1,1.34.61,1.93,1.93,0,0,1,.24,1.53L217.46,330a21.81,21.81,0,0,1,8.81,2.87,15.49,15.49,0,0,1,5.42,5.34,12.26,12.26,0,0,1,1.81,6.25,15.66,15.66,0,0,1-.18,1.86,2.65,2.65,0,0,1-.79,1.39,2.17,2.17,0,0,1-1.53.56h-4.64a1.9,1.9,0,0,1-1.94-1.86,7.36,7.36,0,0,0-3.06-6.54,13.65,13.65,0,0,0-8.72-2.64,21.65,21.65,0,0,0-10.8,2.5,10.65,10.65,0,0,0-5.43,7.24,9,9,0,0,0-.27,2.13,6.47,6.47,0,0,0,3.33,5.66q3.34,2.13,11.69,4.73,9.27,2.78,13.49,6.21a11,11,0,0,1,4.22,9,23.43,23.43,0,0,1-.47,4.08,19.89,19.89,0,0,1-8.11,12.61q-6.34,4.45-16.55,4.91l-1.3,6.31a2.52,2.52,0,0,1-.93,1.53,2.57,2.57,0,0,1-1.66.6h-3.34A1.65,1.65,0,0,1,195.12,404.1Z"/><path class="cls-3" d="M243.56,392.42a13,13,0,0,1-4.77-10.53,18.28,18.28,0,0,1,.37-3.8,19,19,0,0,1,5.61-9.92,51.25,51.25,0,0,1,11.36-7.79,29.47,29.47,0,0,1-4-6.53,15.2,15.2,0,0,1-1.21-5.8,22.33,22.33,0,0,1,.38-3.25,17.94,17.94,0,0,1,3.8-7.55,20.83,20.83,0,0,1,7.23-5.56,21.48,21.48,0,0,1,9.46-2.09q6.48,0,10.29,3.29a10.82,10.82,0,0,1,3.8,8.58,13.22,13.22,0,0,1-.37,3.24,16.94,16.94,0,0,1-5.66,9.51A60.64,60.64,0,0,1,267.72,362l12.61,15.67a52.22,52.22,0,0,0,8.06-14.28,2.32,2.32,0,0,1,.84-1.35,2.53,2.53,0,0,1,1.57-.51h3.81a1.48,1.48,0,0,1,1.25.56,1.63,1.63,0,0,1,.23,1.39,36.66,36.66,0,0,1-4,9.37,59.58,59.58,0,0,1-7.47,10.1l7.51,9.37a2,2,0,0,1,.37,1.11,1.91,1.91,0,0,1-.6,1.48,2.12,2.12,0,0,1-1.53.56h-4.91a2.79,2.79,0,0,1-2.32-.93l-4.82-6.12a33.63,33.63,0,0,1-21.7,8Q248.34,396.36,243.56,392.42Zm22.58-4.87a28.37,28.37,0,0,0,7.88-4.73l-14-17.06a42.08,42.08,0,0,0-8.48,5.47,12.5,12.5,0,0,0-4.13,6.68,10.55,10.55,0,0,0-.28,2.31,7.7,7.7,0,0,0,3.16,6.54,12.72,12.72,0,0,0,7.88,2.37A22.07,22.07,0,0,0,266.14,387.55Zm8.16-37.18a9.21,9.21,0,0,0,3.52-7.33,5.82,5.82,0,0,0-2.08-4.77,8.38,8.38,0,0,0-5.52-1.72,11.5,11.5,0,0,0-5.24,1.3,11.22,11.22,0,0,0-4.17,3.62,9,9,0,0,0-1.62,5.28,10,10,0,0,0,1.06,4.22,36.23,36.23,0,0,0,3.57,5.7A50.51,50.51,0,0,0,274.3,350.37Z"/><path class="cls-3" d="M300.26,394.83a1.82,1.82,0,0,1-.28-1.53l1.12-5.66a2.65,2.65,0,0,1,2.59-2.13h5.66a1.78,1.78,0,0,1,1.43.6,1.74,1.74,0,0,1,.33,1.53l-1.21,5.66a2.55,2.55,0,0,1-.92,1.53,2.61,2.61,0,0,1-1.67.6h-5.66A1.65,1.65,0,0,1,300.26,394.83Zm4.08-15.16a1.87,1.87,0,0,1-.28-1.58l9.65-45.43a2.59,2.59,0,0,1,.88-1.53,2.39,2.39,0,0,1,1.62-.6h4.08a1.7,1.7,0,0,1,1.39.55,1.87,1.87,0,0,1,.28,1.58l-9.65,45.43a2.55,2.55,0,0,1-.92,1.53,2.59,2.59,0,0,1-1.67.6h-4A1.7,1.7,0,0,1,304.34,379.67Z"/><path class="cls-3" d="M332.76,397.35Q326,391.19,326,379.78a39.18,39.18,0,0,1,.27-4.54q.29-2.6,1.44-8.07c.77-3.64,1.41-6.24,1.9-7.79q4.26-13.15,14.19-20.81t24-7.65q28,0,28,21.79a42.86,42.86,0,0,1-.56,6.67,101.56,101.56,0,0,1-2.51,12.15q-1.85,6.68-5.88,10.2a14.1,14.1,0,0,1-9.6,3.52q-6.3,0-9.09-5.28a15.57,15.57,0,0,1-13,6.21q-5.65,0-8.76-3.29t-3.1-9.32a32.66,32.66,0,0,1,.74-6.31q1.85-8.89,7-13.95a16.69,16.69,0,0,1,12.1-5.05,9.87,9.87,0,0,1,5.38,1.25,9.15,9.15,0,0,1,3,3.2l.38-1.58a2.55,2.55,0,0,1,.92-1.53,2.59,2.59,0,0,1,1.67-.6H377a1.65,1.65,0,0,1,1.39.6,1.82,1.82,0,0,1,.28,1.53L374.53,371a14.79,14.79,0,0,0-.28,2.78,5.58,5.58,0,0,0,1.16,3.81,4.08,4.08,0,0,0,3.2,1.29,6,6,0,0,0,5.14-2.5,15.64,15.64,0,0,0,2.55-5.47,96.85,96.85,0,0,0,2.32-11,35.72,35.72,0,0,0,.37-5.29q0-8.62-5.33-12.93t-17.2-4.31q-11.31,0-19,5.88t-11.27,16.65q-.74,2.31-1.8,7.32c-.71,3.34-1.16,5.88-1.35,7.6s-.18,2.79-.18,3.53q0,9.09,5.38,13.95t15.85,4.87a43.6,43.6,0,0,0,10.25-1,28.92,28.92,0,0,0,6.07-2c1.3-.68,2.93-1.67,4.91-3a9.05,9.05,0,0,0,1-.65,2.88,2.88,0,0,1,1.71-.55h3.53a1.57,1.57,0,0,1,1.34.55,1.82,1.82,0,0,1,.23,1.49,5.07,5.07,0,0,1-.65,1.39,44.4,44.4,0,0,1-12.56,7.42,47.29,47.29,0,0,1-17.2,2.78Q339.48,403.52,332.76,397.35Zm31.85-20.81a20.31,20.31,0,0,0,4-9.28,30.58,30.58,0,0,0,.64-5.28q0-7.41-6.95-7.42-8.81,0-11.59,12.7a19.81,19.81,0,0,0-.46,4.55,9.44,9.44,0,0,0,1.62,5.84q1.62,2.13,5.14,2.13A9.51,9.51,0,0,0,364.61,376.54Z"/></g></svg>