<svg id="Слой_1" data-name="Слой 1" xmlns="http://www.w3.org/2000/svg" xmlns:xlink="http://www.w3.org/1999/xlink" viewBox="0 0 512 512"><defs><style>.cls-1,.cls-2{stroke:#e83150;stroke-miterlimit:10;}.cls-1{fill:url(#Безымянный_градиент_33);}.cls-2{fill:#e83150;}.cls-3{fill:#fff;}.cls-4{fill:#732020;}</style><radialGradient id="Безымянный_градиент_33" cx="256" cy="256" fy="156.15519348800524" r="256" gradientUnits="userSpaceOnUse"><stop offset="0" stop-color="#ffc0cc"/><stop offset="0.01" stop-color="#ffc0cc"/><stop offset="0.99" stop-color="#e83150"/></radialGradient></defs><g id="Logo"><circle class="cls-1" cx="256" cy="256" r="256"/><circle class="cls-2" cx="256" cy="256" r="256"/><path class="cls-3" d="M208.64,284.24s-6.29-35.77-36.4-54.59c-12.77-8.84-27.65-12.62-42.14-14.18a58.8,58.8,0,1,0,85.22,81A19.5,19.5,0,0,1,208.64,284.24Z"/><circle cx="172.24" cy="256" r="28.24"/><path class="cls-4" d="M93.18,199.53c14.37-1.65,60.91-5.18,99.76,24.47,10,7.6,42.4,32.36,41.48,65.16a47.72,47.72,0,0,1-.78,7.46c-1.17,6.44-21.88,6.44-25-12.38,0,0-6.29-35.77-36.4-54.59-24.48-16.94-56.7-15.31-79.06-15.06Z"/><path class="cls-3" d="M303.36,284.24s6.29-35.77,36.4-54.59c12.77-8.84,27.65-12.62,42.14-14.18a58.8,58.8,0,1,1-85.22,81A19.5,19.5,0,0,0,303.36,284.24Z"/><circle cx="339.76" cy="256" r="28.24"/><path class="cls-4" d="M418.82,199.53c-14.37-1.65-60.91-5.18-99.76,24.47-10,7.6-42.4,32.36-41.48,65.16a47.72,47.72,0,0,0,.78,7.46c1.17,6.44,21.88,6.44,25-12.38,0,0,6.29-35.77,36.4-54.59,24.48-16.94,56.7-15.31,79.06-15.06Z"/><rect x="41.41" y="326.59" width="429.18" height="143.06" rx="10.82"/><path class="cls-3" d="M82.12,434.49a1.72,1.72,0,0,1-.3-1.84l5.5-14.93H75.09a2.44,2.44,0,0,1-1.9-.73,2.13,2.13,0,0,1-.43-2l.86-3.91a3.12,3.12,0,0,1,1.22-2,3.58,3.58,0,0,1,2.2-.74H90.63l7.83-21.77H84.88a2.45,2.45,0,0,1-1.9-.74,2.13,2.13,0,0,1-.43-2l.86-3.91a3.12,3.12,0,0,1,1.22-2,3.57,3.57,0,0,1,2.2-.73h15l5.39-14.93a3.88,3.88,0,0,1,1.28-1.84,3.16,3.16,0,0,1,2-.73h4.16a2.1,2.1,0,0,1,1.71.73,1.82,1.82,0,0,1,.25,1.84l-5.39,14.93h18.36L135,362.42a3.88,3.88,0,0,1,1.28-1.84,3.18,3.18,0,0,1,2-.73h4.16a2.11,2.11,0,0,1,1.72.73,1.82,1.82,0,0,1,.24,1.84l-5.38,14.93h12.11a2.06,2.06,0,0,1,1.77.73,2.37,2.37,0,0,1,.31,2l-.86,3.91a2.72,2.72,0,0,1-1,2,3.31,3.31,0,0,1-2.14.74H135.77l-7.83,21.77H141.4a2.08,2.08,0,0,1,1.78.74,2.41,2.41,0,0,1,.3,2l-.85,3.91a2.79,2.79,0,0,1-1,2,3.35,3.35,0,0,1-2.15.73H124.52l-5.39,14.93c-.73,1.71-1.83,2.57-3.3,2.57h-4.16a2.31,2.31,0,0,1-1.77-.73,1.74,1.74,0,0,1-.31-1.84l5.51-14.93H96.74l-5.38,14.93c-.73,1.71-1.84,2.57-3.3,2.57H83.9A2.33,2.33,0,0,1,82.12,434.49Zm18-26.07H118.4l7.83-21.77H108Z"/><path class="cls-3" d="M175.66,451.43a2.4,2.4,0,0,1-.37-2l1.84-8.56q-11.15-1.23-17-6.67A17.26,17.26,0,0,1,154.25,421a20.07,20.07,0,0,1,.12-2.57,2.61,2.61,0,0,1,1-1.72,3.14,3.14,0,0,1,2-.73h5.87c1.47,0,2.37.82,2.69,2.45a10.88,10.88,0,0,0,4.35,8.87q4.46,3.74,13.39,3.73,10.41,0,16.65-3.67a15.47,15.47,0,0,0,7.7-10.16,9,9,0,0,0,.25-2.44,7.27,7.27,0,0,0-2.33-5.51,22.56,22.56,0,0,0-6.6-4q-4.29-1.83-12.73-4.52-11-3.44-16.15-8a15.23,15.23,0,0,1-5.14-11.93A25.93,25.93,0,0,1,175.54,360q7.58-5.8,19.57-6.66l2.08-8.45a3.56,3.56,0,0,1,1.17-2,3.36,3.36,0,0,1,2.26-.79H205a2,2,0,0,1,1.78.79,2.52,2.52,0,0,1,.3,2l-1.95,8.69a28.71,28.71,0,0,1,11.62,3.79,20.47,20.47,0,0,1,7.16,7,16.25,16.25,0,0,1,2.38,8.26,20.12,20.12,0,0,1-.24,2.44,3.49,3.49,0,0,1-1,1.84,2.87,2.87,0,0,1-2,.73h-6.12a2.58,2.58,0,0,1-1.71-.61,2.61,2.61,0,0,1-.86-1.83,9.66,9.66,0,0,0-4-8.63q-4.41-3.48-11.51-3.49a28.37,28.37,0,0,0-14.25,3.31,14,14,0,0,0-7.16,9.54,11.84,11.84,0,0,0-.36,2.81c0,3.11,1.46,5.59,4.4,7.47s8.08,4,15.42,6.24q12.22,3.68,17.8,8.2a14.54,14.54,0,0,1,5.57,11.86,30.9,30.9,0,0,1-.62,5.39,26.27,26.27,0,0,1-10.7,16.64q-8.38,5.86-21.84,6.48l-1.71,8.32a3.55,3.55,0,0,1-3.43,2.82h-4.41A2.17,2.17,0,0,1,175.66,451.43Z"/><path class="cls-3" d="M239.59,436a17.07,17.07,0,0,1-6.3-13.88,24.08,24.08,0,0,1,.49-5,25.13,25.13,0,0,1,7.4-13.09,67.62,67.62,0,0,1,15-10.28,39,39,0,0,1-5.26-8.62,20,20,0,0,1-1.59-7.65,28.67,28.67,0,0,1,.49-4.28,23.65,23.65,0,0,1,5-10,27.79,27.79,0,0,1,9.54-7.35,28.65,28.65,0,0,1,12.49-2.75q8.56,0,13.58,4.34a14.28,14.28,0,0,1,5,11.32,17.41,17.41,0,0,1-.49,4.28,22.33,22.33,0,0,1-7.46,12.54,79.51,79.51,0,0,1-16,10.22L288.1,416.5a69,69,0,0,0,10.65-18.84,3,3,0,0,1,1.1-1.78,3.3,3.3,0,0,1,2.08-.67h5a1.94,1.94,0,0,1,1.66.73,2.15,2.15,0,0,1,.3,1.84,48.12,48.12,0,0,1-5.32,12.36,78.44,78.44,0,0,1-9.85,13.33l9.91,12.36a2.61,2.61,0,0,1,.49,1.47,2.54,2.54,0,0,1-.8,2,2.83,2.83,0,0,1-2,.73h-6.49a3.69,3.69,0,0,1-3.06-1.22l-6.36-8.08q-13,10.53-28.63,10.53Q245.89,441.22,239.59,436Zm29.79-6.42a37.58,37.58,0,0,0,10.4-6.24l-18.47-22.51a55.28,55.28,0,0,0-11.2,7.22,16.5,16.5,0,0,0-5.44,8.81,13.29,13.29,0,0,0-.37,3.05,10.19,10.19,0,0,0,4.16,8.63,16.84,16.84,0,0,0,10.4,3.12A29,29,0,0,0,269.38,429.59Zm10.77-49.06a12.16,12.16,0,0,0,4.65-9.67,7.7,7.7,0,0,0-2.76-6.3,11.08,11.08,0,0,0-7.28-2.26,15.12,15.12,0,0,0-6.91,1.71,14.74,14.74,0,0,0-5.5,4.77,11.87,11.87,0,0,0-2.14,7,13.1,13.1,0,0,0,1.4,5.56,49.13,49.13,0,0,0,4.71,7.53Q275.5,384.44,280.15,380.53Z"/><path class="cls-3" d="M314.41,439.19a2.38,2.38,0,0,1-.37-2l1.47-7.47a3.51,3.51,0,0,1,3.42-2.81h7.47a2.37,2.37,0,0,1,1.89.79,2.3,2.3,0,0,1,.43,2l-1.59,7.47a3.34,3.34,0,0,1-1.22,2,3.38,3.38,0,0,1-2.21.8h-7.46A2.12,2.12,0,0,1,314.41,439.19Zm5.38-20a2.44,2.44,0,0,1-.37-2.08l12.73-59.95a3.48,3.48,0,0,1,1.16-2,3.16,3.16,0,0,1,2.14-.8h5.38a2.26,2.26,0,0,1,1.84.74,2.44,2.44,0,0,1,.37,2.08l-12.73,59.95a3.37,3.37,0,0,1-1.22,2,3.42,3.42,0,0,1-2.2.79h-5.27A2.25,2.25,0,0,1,319.79,419.19Z"/><path class="cls-3" d="M357.29,442.53q-8.87-8.14-8.87-23.19a49.12,49.12,0,0,1,.37-6q.36-3.44,1.89-10.65t2.51-10.28Q358.82,375,371.91,365t31.69-10.1q36.94,0,36.95,28.75a56.33,56.33,0,0,1-.73,8.81,135.17,135.17,0,0,1-3.31,16q-2.44,8.82-7.77,13.46a18.61,18.61,0,0,1-12.66,4.65q-8.32,0-12-7-6.36,8.19-17.13,8.19-7.47,0-11.56-4.34t-4.1-12.3a43.06,43.06,0,0,1,1-8.32q2.45-11.74,9.23-18.41a22.08,22.08,0,0,1,16-6.67,13.06,13.06,0,0,1,7.1,1.65,12.16,12.16,0,0,1,4,4.22l.49-2.08a3.51,3.51,0,0,1,3.42-2.81h3.18a2.2,2.2,0,0,1,1.84.79,2.41,2.41,0,0,1,.37,2l-5.51,26.19a20.37,20.37,0,0,0-.37,3.67,7.29,7.29,0,0,0,1.53,5,5.35,5.35,0,0,0,4.22,1.72,7.86,7.86,0,0,0,6.79-3.31A21,21,0,0,0,428,407.6,130.09,130.09,0,0,0,431,393a48.36,48.36,0,0,0,.49-7q0-11.37-7-17.07t-22.7-5.69q-14.92,0-25,7.77t-14.86,22q-1,3.08-2.39,9.67t-1.77,10c-.17,2.13-.25,3.67-.25,4.65q0,12,7.1,18.42t20.92,6.42A57.8,57.8,0,0,0,399,440.88a38.28,38.28,0,0,0,8-2.7q2.57-1.35,6.48-3.91c.16-.08.59-.37,1.29-.86a3.81,3.81,0,0,1,2.26-.73h4.65a2.06,2.06,0,0,1,1.77.73,2.38,2.38,0,0,1,.31,2,6.55,6.55,0,0,1-.86,1.83A58.15,58.15,0,0,1,406.35,447q-9.36,3.67-22.69,3.67Q366.16,450.66,357.29,442.53Zm42-27.47c2.44-2.86,4.2-6.93,5.26-12.24a40.54,40.54,0,0,0,.86-7q0-9.78-9.18-9.79-11.62,0-15.29,16.76a26,26,0,0,0-.62,6,12.52,12.52,0,0,0,2.14,7.71q2.14,2.81,6.79,2.81A12.51,12.51,0,0,0,399.32,415.06Z"/></g></svg>